<svg viewBox="0 0 48 48" fill="none" xmlns="http://www.w3.org/2000/svg">
  <defs>
    <linearGradient id="favicon-bg" x1="0%" y1="0%" x2="100%" y2="100%">
      <stop offset="0%" stop-color="#0f172a" />
      <stop offset="100%" stop-color="#1e293b" />
    </linearGradient>
    <linearGradient id="favicon-accent" x1="0%" y1="0%" x2="100%" y2="100%">
      <stop offset="0%" stop-color="#06b6d4" />
      <stop offset="50%" stop-color="#8b5cf6" />
      <stop offset="100%" stop-color="#ec4899" />
    </linearGradient>
    <linearGradient id="wave-gradient" x1="0%" y1="0%" x2="100%" y2="0%">
      <stop offset="0%" stop-color="#06b6d4" />
      <stop offset="50%" stop-color="#8b5cf6" />
      <stop offset="100%" stop-color="#ec4899" />
    </linearGradient>
  </defs>
  <!-- Background -->
  <rect x="2" y="2" width="44" height="44" rx="10" fill="url(#favicon-bg)" />
  <!-- Left brace -->
  <path
    d="M15 13c-3 0-5 2-5 5v4c0 1.5-1.5 2-2.5 2 1 0 2.5.5 2.5 2v4c0 3 2 5 5 5"
    stroke="url(#favicon-accent)"
    stroke-width="2.5"
    stroke-linecap="round"
    fill="none"
  />
  <!-- Right brace -->
  <path
    d="M33 13c3 0 5 2 5 5v4c0 1.5 1.5 2 2.5 2-1 0-2.5.5-2.5 2v4c0 3-2 5-5 5"
    stroke="url(#favicon-accent)"
    stroke-width="2.5"
    stroke-linecap="round"
    fill="none"
  />
  <!-- CSS Wave in center -->
  <path
    d="M16 24c2-4 4-6 8-6s6 6 8 6 4-6 8-6"
    stroke="url(#wave-gradient)"
    stroke-width="3"
    stroke-linecap="round"
    fill="none"
    opacity="0.3"
  />
  <path
    d="M14 28c3-5 5-8 10-8s7 8 10 8"
    stroke="url(#wave-gradient)"
    stroke-width="3"
    stroke-linecap="round"
    fill="none"
    opacity="0.5"
  />
  <path
    d="M16 24c3-4 5-6 8-6s5 6 8 6"
    stroke="url(#wave-gradient)"
    stroke-width="3.5"
    stroke-linecap="round"
    fill="none"
  />
</svg>
