<svg viewBox="0 0 48 48" fill="none" xmlns="http://www.w3.org/2000/svg">
  <defs>
    <linearGradient id="favicon-gradient" x1="0%" y1="0%" x2="100%" y2="100%">
      <stop offset="0%" stop-color="#06b6d4" />
      <stop offset="50%" stop-color="#8b5cf6" />
      <stop offset="100%" stop-color="#ec4899" />
    </linearGradient>
  </defs>
  <!-- Gradient background -->
  <rect x="2" y="2" width="44" height="44" rx="10" fill="url(#favicon-gradient)" />
  <!-- Left brace -->
  <path
    d="M13 13c-3 0-4.5 1.5-4.5 4.5v4c0 1.5-1 2.5-2.5 2.5 1.5 0 2.5 1 2.5 2.5v4c0 3 1.5 4.5 4.5 4.5"
    stroke="white"
    stroke-width="2.5"
    stroke-linecap="round"
    fill="none"
  />
  <!-- Right brace -->
  <path
    d="M35 13c3 0 4.5 1.5 4.5 4.5v4c0 1.5 1 2.5 2.5 2.5-1.5 0-2.5 1-2.5 2.5v4c0 3-1.5 4.5-4.5 4.5"
    stroke="white"
    stroke-width="2.5"
    stroke-linecap="round"
    fill="none"
  />
  <!-- CSS text centered -->
  <text
    x="24"
    y="24"
    text-anchor="middle"
    dominant-baseline="central"
    font-family="Arial, sans-serif"
    font-size="11"
    font-weight="bold"
    fill="white"
  >CSS</text>
</svg>
